<svg width="20" height="20" viewBox="0 0 20 20" fill="none" xmlns="http://www.w3.org/2000/svg">
<path d="M2.11529 0.626953H18.2587C18.6869 0.626953 19.0975 0.797035 19.4002 1.09978C19.703 1.40253 19.873 1.81314 19.873 2.24129V18.3847C19.873 18.8129 19.703 19.2235 19.4002 19.5262C19.0975 19.829 18.6869 19.999 18.2587 19.999H2.11529C1.68714 19.999 1.27653 19.829 0.973783 19.5262C0.671036 19.2235 0.500954 18.8129 0.500954 18.3847V2.24129C0.500954 1.81314 0.671036 1.40253 0.973783 1.09978C1.27653 0.797035 1.68714 0.626953 2.11529 0.626953ZM6.15115 11.1202H12.2745L10.4231 12.9706C10.3481 13.0456 10.2886 13.1346 10.248 13.2326C10.2074 13.3306 10.1866 13.4356 10.1866 13.5417C10.1866 13.6477 10.2074 13.7528 10.248 13.8507C10.2886 13.9487 10.3481 14.0378 10.4231 14.1128C10.4981 14.1878 10.5871 14.2472 10.6851 14.2878C10.7831 14.3284 10.8881 14.3493 10.9942 14.3493C11.1002 14.3493 11.2052 14.3284 11.3032 14.2878C11.4012 14.2472 11.4902 14.1878 11.5652 14.1128L14.7939 10.8841C14.869 10.8091 14.9285 10.7201 14.9691 10.6221C15.0098 10.5241 15.0307 10.4191 15.0307 10.313C15.0307 10.2069 15.0098 10.1019 14.9691 10.0039C14.9285 9.90591 14.869 9.81689 14.7939 9.74193L11.5652 6.51324C11.4138 6.36179 11.2084 6.2767 10.9942 6.2767C10.78 6.2767 10.5746 6.36179 10.4231 6.51324C10.2716 6.6647 10.1866 6.87012 10.1866 7.08432C10.1866 7.29851 10.2716 7.50393 10.4231 7.65539L12.2745 9.50583H6.15115C5.93707 9.50583 5.73176 9.59087 5.58039 9.74224C5.42902 9.89362 5.34398 10.0989 5.34398 10.313C5.34398 10.5271 5.42902 10.7324 5.58039 10.8838C5.73176 11.0351 5.93707 11.1202 6.15115 11.1202Z" fill="black"/>
</svg>
