<svg width="20" height="20" viewBox="0 0 20 20" fill="none" xmlns="http://www.w3.org/2000/svg">
<path d="M18.0878 0.626953H1.94442C1.51627 0.626953 1.10566 0.797035 0.802908 1.09978C0.50016 1.40253 0.330078 1.81314 0.330078 2.24129V18.3847C0.330078 18.8129 0.50016 19.2235 0.802908 19.5262C1.10566 19.829 1.51627 19.999 1.94442 19.999H18.0878C18.516 19.999 18.9266 19.829 19.2293 19.5262C19.5321 19.2235 19.7022 18.8129 19.7022 18.3847V2.24129C19.7022 1.81314 19.5321 1.40253 19.2293 1.09978C18.9266 0.797035 18.516 0.626953 18.0878 0.626953ZM14.052 11.1202H7.92858L9.78003 12.9706C9.85502 13.0456 9.91451 13.1346 9.9551 13.2326C9.99568 13.3306 10.0166 13.4356 10.0166 13.5417C10.0166 13.6477 9.99568 13.7528 9.9551 13.8507C9.91451 13.9487 9.85502 14.0378 9.78003 14.1128C9.70503 14.1877 9.616 14.2472 9.51802 14.2878C9.42003 14.3284 9.31501 14.3493 9.20895 14.3493C9.1029 14.3493 8.99788 14.3284 8.89989 14.2878C8.80191 14.2472 8.71288 14.1877 8.63788 14.1128L5.4092 10.8841C5.33415 10.8091 5.27462 10.7201 5.23399 10.6221C5.19337 10.5241 5.17247 10.4191 5.17247 10.313C5.17247 10.2069 5.19337 10.1019 5.23399 10.0039C5.27462 9.90591 5.33415 9.81689 5.4092 9.74193L8.63788 6.51324C8.78934 6.36179 8.99476 6.2767 9.20895 6.2767C9.42315 6.2767 9.62857 6.36179 9.78003 6.51324C9.93149 6.6647 10.0166 6.87012 10.0166 7.08432C10.0166 7.29851 9.93149 7.50393 9.78003 7.65539L7.92858 9.50583H14.052C14.2661 9.50583 14.4714 9.59087 14.6227 9.74224C14.7741 9.89362 14.8591 10.0989 14.8591 10.313C14.8591 10.5271 14.7741 10.7324 14.6227 10.8838C14.4714 11.0351 14.2661 11.1202 14.052 11.1202Z" fill="black"/>
</svg>
